HIERARCHY
ROOT Hips
{
	OFFSET 0.00000 0.00000 0.00000
	CHANNELS 6 Xposition Yposition Zposition Zrotation Yrotation Xrotation 
	JOINT LHipJoint
	{
		OFFSET 0 0 0
		CHANNELS 3 Zrotation Yrotation Xrotation
		JOINT LeftUpLeg
		{
			OFFSET 2.36090 -1.39315 1.24752
			CHANNELS 3 Zrotation Yrotation Xrotation
			JOINT LeftLeg
			{
				OFFSET 2.06810 -5.68207 0.00000
				CHANNELS 3 Zrotation Yrotation Xrotation
				JOINT LeftFoot
				{
					OFFSET 2.46631 -6.77613 0.00000
					CHANNELS 3 Zrotation Yrotation Xrotation
					JOINT LeftToeBase
					{
						OFFSET 0.26031 -0.71520 1.99545
						CHANNELS 3 Zrotation Yrotation Xrotation
						End Site
						{
							OFFSET 0.00000 -0.00000 1.05957
						}
					}
				}
			}
		}
	}
	JOINT RHipJoint
	{
		OFFSET 0 0 0
		CHANNELS 3 Zrotation Yrotation Xrotation
		JOINT RightUpLeg
		{
			OFFSET -2.25243 -1.39315 1.24752
			CHANNELS 3 Zrotation Yrotation Xrotation
			JOINT RightLeg
			{
				OFFSET -2.17343 -5.97145 0.00000
				CHANNELS 3 Zrotation Yrotation Xrotation
				JOINT RightFoot
				{
					OFFSET -2.52372 -6.93386 0.00000
					CHANNELS 3 Zrotation Yrotation Xrotation
					JOINT RightToeBase
					{
						OFFSET -0.22538 -0.61923 2.11447
						CHANNELS 3 Zrotation Yrotation Xrotation
						End Site
						{
							OFFSET -0.00000 -0.00000 1.10506
						}
					}
				}
			}
		}
	}
	JOINT LowerBack
	{
		OFFSET 0 0 0
		CHANNELS 3 Zrotation Yrotation Xrotation
		JOINT Spine
		{
			OFFSET 0.01594 2.13103 0.08007
			CHANNELS 3 Zrotation Yrotation Xrotation
			JOINT Spine1
			{
				OFFSET 0.01393 2.09723 0.18338
				CHANNELS 3 Zrotation Yrotation Xrotation
				JOINT Neck
				{
					OFFSET 0 0 0
					CHANNELS 3 Zrotation Yrotation Xrotation
					JOINT Neck1
					{
						OFFSET 0.05351 1.38915 0.32494
						CHANNELS 3 Zrotation Yrotation Xrotation
						JOINT Head
						{
							OFFSET 0.00711 1.45992 -0.21666
							CHANNELS 3 Zrotation Yrotation Xrotation
							End Site
							{
								OFFSET -0.00433 1.47702 -0.11056
							}
						}
					}
				}
				JOINT LeftShoulder
				{
					OFFSET 0 0 0
					CHANNELS 3 Zrotation Yrotation Xrotation
					JOINT LeftArm
					{
						OFFSET 2.87198 0.92249 0.11132
						CHANNELS 3 Zrotation Yrotation Xrotation
						JOINT LeftForeArm
						{
							OFFSET 5.52731 -0.00000 0.00000
							CHANNELS 3 Zrotation Yrotation Xrotation
							JOINT LeftHand
							{
								OFFSET 3.11059 -0.00000 0.00000
								CHANNELS 3 Zrotation Yrotation Xrotation
								JOINT LeftFingerBase
								{
									OFFSET 0 0 0
									CHANNELS 3 Zrotation Yrotation Xrotation
									JOINT LeftHandIndex1
									{
										OFFSET 0.41963 -0.00000 0.00000
										CHANNELS 3 Zrotation Yrotation Xrotation
										End Site
										{
											OFFSET 0.33831 -0.00000 0.00000
										}
									}
								}
								JOINT LThumb
								{
									OFFSET 0 0 0
									CHANNELS 3 Zrotation Yrotation Xrotation
									End Site
									{
										OFFSET 0.34348 -0.00000 0.34348
									}
								}
							}
						}
					}
				}
				JOINT RightShoulder
				{
					OFFSET 0 0 0
					CHANNELS 3 Zrotation Yrotation Xrotation
					JOINT RightArm
					{
						OFFSET -2.94710 0.68072 0.32187
						CHANNELS 3 Zrotation Yrotation Xrotation
						JOINT RightForeArm
						{
							OFFSET -5.25396 -0.00000 -0.00000
							CHANNELS 3 Zrotation Yrotation Xrotation
							JOINT RightHand
							{
								OFFSET -3.10567 -0.00000 0.00000
								CHANNELS 3 Zrotation Yrotation Xrotation
								JOINT RightFingerBase
								{
									OFFSET 0 0 0
									CHANNELS 3 Zrotation Yrotation Xrotation
									JOINT RightHandIndex1
									{
										OFFSET -0.49868 -0.00000 0.00000
										CHANNELS 3 Zrotation Yrotation Xrotation
										End Site
										{
											OFFSET -0.40204 -0.00000 0.00000
										}
									}
								}
								JOINT RThumb
								{
									OFFSET 0 0 0
									CHANNELS 3 Zrotation Yrotation Xrotation
									End Site
									{
										OFFSET -0.40818 -0.00000 0.40818
									}
								}
							}
						}
					}
				}
			}
		}
	}
}
MOTION
Frames: 14
Frame Time: 0.142857
0.00 0.00 0.00 0 0 0 0 0 0 -21 0 0 0 0 0 0 0 0 0 0 0 0 0 0 21 0 0 0 0 0 0 0 0 0 0 0 0 0 0 0 0 0 0 0 0 0 0 -16 0 0 21 0 0 11 0 0 0 -8 0 0 0 0 0 0 0 0 0 0 0 0 0 0 0 0 0 0 0 0 8 0 0 0 0 0 0 0 0 0 0 0 0 0 0 0 0 0
0.00 0.00 0.00 -172.1170 -0.3405 -148.4140 0.0000 0.0000 0.0000 -2.9735 -21.2233 -52.9093 4.6566 12.9863 39.3172 0.7051 -3.4158 -15.0728 0.4466 -4.2876 -11.8872 0.0000 0.0000 0.0000 22.9293 23.6181 -42.8984 -8.1547 -16.2319 53.1181 -0.6126 -0.5374 -14.9916 -0.2391 3.1469 -8.6880 -14.7288 -1.9644 -11.9443 -2.2976 -0.1066 -2.8512 5.8239 0.0874 3.7389 4.3185 4.5877 -12.3343 6.9354 1.9515 25.0687 1.8422 1.4891 10.0368 -0.0000 0.0000 0.0000 -72.1582 -4.0406 38.2949 22.8140 -33.8848 -7.0343 -0.0000 0.0000 -47.1680 28.0118 -3.5881 -1.9068 -7.1250 0.0000 -0.0000 1.0531 25.9168 -0.4870 -0.0000 0.0000 0.0000 81.2488 -9.9212 31.0489 -25.3632 36.5729 -8.5054 0.0000 -0.0000 -4.5018 -5.9827 -15.1140 1.5652 7.1250 -0.0000 -0.0000 19.7726 -44.2278 0.3929
0.00 0.00 0.00 -171.7900 -0.2995 -148.2670 0.0000 0.0000 0.0000 -3.9035 -20.4112 -50.7972 4.2225 12.4508 37.3458 0.7009 -3.9413 -14.9727 0.4229 -4.1736 -11.5656 0.0000 0.0000 0.0000 22.0810 23.7032 -51.9007 -13.8149 -19.0569 71.6384 -0.4621 -0.1025 -12.8815 -0.2567 3.2600 -9.0034 -15.6802 -2.2413 -11.8706 -3.2380 -0.1848 -2.7726 5.3217 0.0904 3.8144 3.9149 4.3445 -12.2649 8.5789 1.0588 25.3327 2.3773 1.1565 10.1298 -0.0000 -0.0000 0.0000 -70.2629 -5.3485 34.5230 22.3083 -33.3237 -6.7544 -0.0000 0.0000 -48.6463 30.6936 -4.1467 -2.4578 -7.1250 0.0000 -0.0000 3.0469 25.1601 -1.4644 -0.0000 -0.0000 0.0000 80.2773 -9.9422 32.5231 -27.8003 38.9318 -9.9980 0.0000 -0.0000 -6.0000 -5.5680 -13.4662 1.3005 7.1250 -0.0000 -0.0000 19.5677 -42.6285 1.1949
0.00 0.00 0.00 -171.2280 -0.9011 -148.4240 0.0000 0.0000 0.0000 -4.7908 -19.5332 -46.0335 3.2812 11.1369 32.7429 0.6547 -4.0761 -14.4473 0.4340 -4.2276 -11.7177 0.0000 0.0000 0.0000 20.7963 24.6611 -62.3246 -20.1070 -19.9997 90.3129 -0.2892 0.5542 -9.9774 -0.2814 3.4119 -9.4278 -16.7278 -2.6707 -12.2725 -4.1088 -0.3172 -3.0784 4.9306 0.1294 3.7548 3.7394 3.7887 -12.0639 10.6812 -0.7442 26.2679 2.9441 0.4226 10.5223 -0.0000 -0.0000 0.0000 -68.3081 -6.1101 30.9139 20.3388 -31.0484 -5.7051 -0.0000 0.0000 -50.5176 32.5279 -3.9866 -2.5387 -7.1250 0.0000 -0.0000 4.4326 25.2533 -2.1239 -0.0000 -0.0000 0.0000 79.3673 -10.9299 31.8940 -30.1527 41.0239 -11.5097 0.0000 -0.0000 -8.6554 -6.8051 -12.5437 1.4846 7.1250 -0.0000 -0.0000 18.2125 -41.8748 1.4577
0.00 0.00 0.00 -171.3600 -6.8137 -155.7250 0.0000 0.0000 0.0000 -11.1755 -13.8035 -17.7198 0.8416 5.8516 16.3543 0.4688 -7.4731 -12.4934 0.8231 -5.7885 -16.1718 0.0000 0.0000 0.0000 12.5394 22.7488 -84.9141 -15.0808 -19.4097 75.4800 0.0173 4.2514 5.3316 -0.0000 0.0024 -0.0067 -16.5523 -1.4361 -12.0609 -0.7033 -0.3631 -3.4154 8.5142 -0.4331 3.1141 1.1776 0.4676 -15.7830 10.7312 -7.5203 34.3860 2.6375 -2.8347 15.1695 -0.0000 -0.0000 0.0000 -77.2943 -4.2465 35.1717 12.8490 -21.0656 -2.3987 -0.0000 0.0000 -41.9893 30.3317 -2.6152 -1.5293 -7.1250 0.0000 -0.0000 2.8582 26.9479 -1.2540 -0.0000 -0.0000 0.0000 70.6409 -16.2373 20.4295 -32.9510 43.2924 -13.3885 0.0000 -0.0000 -9.1838 -5.7730 -16.3950 1.6346 7.1250 -0.0000 -0.0000 20.4295 -45.4085 -0.2151
0.00 0.00 0.00 -173.0370 -11.0841 -155.7910 0.0000 0.0000 0.0000 -12.2726 -12.3758 -11.1822 0.2655 3.3148 9.1565 0.0165 -10.9291 -7.9146 0.7603 -5.5687 -15.5381 0.0000 0.0000 0.0000 9.8095 21.0622 -79.9776 -9.3996 -17.0581 57.4619 -0.0852 1.9066 6.5621 -0.0043 0.4242 -1.1655 -15.8510 -1.8291 -13.0383 1.2808 -0.8035 -3.6355 10.2592 -0.6348 3.5598 0.3259 -0.7062 -14.6174 9.5315 -9.1908 35.9681 2.0177 -3.8868 15.7321 -0.0000 -0.0000 0.0000 -80.5548 -3.0017 40.6830 15.2298 -24.4652 -3.3205 -0.0000 0.0000 -43.8234 27.4677 -3.0247 -1.5713 -7.1250 0.0000 -0.0000 0.6576 26.5715 -0.2940 -0.0000 -0.0000 0.0000 69.3816 -16.9295 17.8146 -32.1038 42.6298 -12.8111 0.0000 -0.0000 -11.2798 -4.4203 -17.3769 1.3225 7.1250 -0.0000 -0.0000 22.0167 -46.1583 -0.6612
0.00 0.00 0.00 -176.0860 -17.4941 -155.4810 0.0000 0.0000 0.0000 -13.1998 -14.0621 -1.9350 0.0000 0.0000 0.0000 -0.4300 -12.9470 -1.5398 0.6659 -5.2188 -14.5337 0.0000 0.0000 0.0000 2.5882 20.9686 -69.5432 -4.5417 -12.8483 38.8033 -0.3216 -9.5297 11.3006 -0.1000 2.0397 -5.6153 -14.5595 -2.3750 -14.2804 3.4940 -1.6209 -3.8912 11.8768 -1.0792 4.2391 -1.0791 -2.6430 -12.4766 7.8161 -11.4191 36.6805 1.1985 -5.3243 15.6469 0.0000 0.0000 0.0000 -82.5694 -0.7852 45.6488 18.9403 -29.3444 -5.0016 -0.0000 0.0000 -43.6170 23.6493 -3.9132 -1.7118 -7.1250 0.0000 -0.0000 -2.2540 25.7084 1.0539 0.0000 0.0000 0.0000 68.1499 -18.0947 15.3868 -30.7696 41.5440 -11.9168 0.0000 -0.0000 -10.7908 -2.8963 -18.1675 0.9037 7.1250 -0.0000 -0.0000 23.7039 -46.6923 -1.0476
0.00 0.00 0.00 -179.9220 -25.5753 -155.1730 0.0000 0.0000 0.0000 -12.9041 -15.3964 7.1948 0.0000 -0.0000 -0.0000 -1.0037 -17.4414 7.8034 0.7791 -5.6353 -15.7299 0.0000 0.0000 0.0000 8.7324 14.3692 -60.4982 -5.3916 -13.8117 42.4884 0.1407 -6.8240 -4.1973 -0.7030 5.3590 -14.9355 -2.6952 0.7589 -15.8968 6.4507 0.2654 -5.5354 8.4830 -0.1838 2.9347 -2.8684 -5.4375 -11.2066 1.7081 -12.5943 37.3496 -1.1280 -6.7519 15.2384 -0.0000 0.0000 0.0000 -81.0729 8.3270 40.2156 24.5830 -35.7747 -8.0449 -0.0000 0.0000 -38.6957 20.4456 -7.2967 -2.7109 -7.1250 0.0000 -0.0000 -4.6374 22.2070 2.5488 -0.0000 0.0000 0.0000 67.5534 -20.2470 9.8245 -25.4411 36.6515 -8.5518 0.0000 -0.0000 -9.5121 -6.1720 -17.9655 1.9104 7.1250 -0.0000 -0.0000 20.6970 -46.9306 -1.0288
0.00 0.00 0.00 -180.3610 -22.3747 -156.1780 0.0000 0.0000 0.0000 -14.8904 -13.8216 0.7293 0.7820 5.6456 15.7596 -1.1568 -18.7126 9.0362 1.1489 -6.8061 -19.1421 0.0000 0.0000 0.0000 10.0406 14.2336 -60.2099 -6.4039 -14.8086 46.5819 -0.0880 -2.7471 -7.3091 -0.6876 5.3012 -14.7696 1.4931 2.4317 -13.5880 6.4487 1.9132 -5.1896 6.2321 0.6037 1.9690 -1.3830 -4.8598 -11.6615 -0.1021 -11.1774 37.1574 -1.8745 -6.1586 14.9350 -0.0000 -0.0000 0.0000 -82.2692 11.9928 30.6616 24.1459 -35.3181 -7.7907 -0.0000 0.0000 -40.0457 26.1477 -8.2755 -4.0418 -7.1250 0.0000 -0.0000 -0.5185 20.7763 0.3009 -0.0000 -0.0000 0.0000 67.3987 -16.0814 8.1618 -22.5708 33.6162 -6.8992 0.0000 -0.0000 -7.8538 -10.1866 -18.5930 3.2790 7.1250 -0.0000 -0.0000 17.2986 -48.0665 -1.3464
0.00 0.00 0.00 -181.7920 -21.2881 -154.5150 0.0000 0.0000 0.0000 -15.8075 -16.3442 -10.2549 3.6231 11.6412 34.4743 -0.6777 -15.5406 12.0630 1.7984 -8.4329 -24.0368 0.0000 0.0000 0.0000 10.3853 13.3647 -59.9201 -6.7408 -15.1097 47.8869 -0.2826 -1.1370 -10.5203 -0.5770 4.8642 -13.5218 4.7431 2.6056 -13.5819 6.7610 1.5702 -5.4180 4.6609 0.3312 1.8563 0.7212 -3.6382 -12.9189 -1.7832 -9.1620 37.4753 -2.6714 -5.2028 15.1172 0.0000 0.0000 0.0000 -84.7004 15.4043 19.0507 22.6214 -33.6722 -6.9272 -0.0000 0.0000 -45.6835 33.3458 -6.9773 -4.5702 -7.1250 0.0000 -0.0000 4.7730 21.6563 -2.6838 0.0000 0.0000 0.0000 67.6658 -9.6842 4.9945 -20.8823 31.6907 -5.9880 0.0000 -0.0000 -5.8284 -15.2614 -20.2077 5.3841 7.1250 -0.0000 -0.0000 13.1543 -50.3986 -1.7770
0.00 0.00 0.00 -182.3150 -20.7694 -153.6290 0.0000 0.0000 0.0000 -15.5910 -20.1132 -22.4222 8.7712 16.6582 55.2953 -0.3903 -11.5316 7.9777 1.7657 -8.3599 -23.8128 0.0000 0.0000 0.0000 11.1988 13.0539 -58.1268 -6.5320 -14.9248 47.0813 -0.4084 -0.4445 -12.2411 -0.5017 4.5407 -12.6031 8.0531 2.6195 -12.8281 7.1665 1.1186 -5.5380 3.1521 -0.0007 1.4076 2.3296 -3.0567 -13.2800 -2.5133 -8.1775 36.6220 -3.0408 -4.6300 14.6800 -0.0000 -0.0000 0.0000 -84.7571 16.2674 15.3441 19.1248 -29.5734 -5.0923 -0.0000 0.0000 -51.6234 34.6514 -3.0910 -2.1344 -7.1250 0.0000 -0.0000 6.1035 26.2160 -2.7943 -0.0000 -0.0000 0.0000 68.8766 -5.5908 3.3814 -22.8892 33.9674 -7.0763 0.0000 -0.0000 -7.3565 -17.9544 -20.4591 6.4621 7.1250 -0.0000 -0.0000 10.6409 -51.0879 -1.6115
0.00 0.00 0.00 -182.1880 -18.4294 -153.7820 0.0000 0.0000 0.0000 -15.2466 -22.0366 -36.1226 15.3618 19.4762 76.3241 -0.4236 -11.4450 4.1895 1.5574 -7.8759 -22.3377 0.0000 0.0000 0.0000 12.1557 14.5736 -54.3591 -5.8974 -14.3282 44.5685 -0.4611 -0.3402 -12.9562 -0.4467 4.2880 -11.8884 9.9335 2.8668 -11.0565 8.0338 1.2985 -4.9220 3.0245 0.0277 1.1212 3.0817 -2.8245 -13.6962 -2.9882 -7.4315 35.1558 -3.1562 -4.2131 14.0549 0.0000 0.0000 0.0000 -83.8472 14.9814 18.8713 14.5317 -23.4897 -3.0368 -0.0000 0.0000 -48.1535 23.8034 3.3353 1.4701 -7.1250 0.0000 -0.0000 -2.2997 33.6178 0.6423 0.0000 0.0000 0.0000 69.4881 -2.3402 4.3699 -26.9042 38.0877 -9.4400 0.0000 -0.0000 -12.1444 -17.6668 -18.4454 5.7545 7.1250 -0.0000 -0.0000 10.2403 -48.9985 -1.0195
0.00 0.00 0.00 -177.2470 6.4397 -160.5410 0.0000 0.0000 0.0000 -14.6315 -22.3783 -34.7495 3.8269 11.9265 35.4724 0.4787 3.9444 -15.1124 0.4212 -4.1657 -11.5434 0.0000 0.0000 0.0000 23.8668 21.1268 -11.8374 -3.9778 -12.1308 36.1964 -0.6697 6.9074 -14.6555 -1.3602 7.3821 -20.8524 -6.8551 3.1959 -18.4680 -8.3377 7.4951 -6.0016 -3.3678 4.3295 4.1662 23.4428 21.3325 2.4538 -10.3708 29.0704 6.5401 -3.8890 14.5850 6.3631 0.0000 -0.0000 0.0000 -72.5823 -4.6088 43.0037 19.0873 -29.5270 -5.0738 -0.0000 0.0000 -45.3155 26.8872 -7.1312 -3.6018 -7.1250 0.0000 -0.0000 0.0720 21.9948 -0.0398 0.0000 -0.0000 0.0000 89.9145 -22.8693 9.7964 -11.9024 19.6581 -2.0693 0.0000 0.0000 4.3937 0.3069 -18.7592 -0.0987 7.1250 -0.0000 -0.0000 26.7935 -46.8104 -1.2875
0.00 0.00 0.00 -1.9579 -43.2117 -336.3900 0.0000 0.0000 0.0000 -27.3291 -2.7664 -24.6436 2.4142 9.6801 27.9470 1.4106 5.6283 -25.0932 0.1795 -2.7289 -7.5248 0.0000 0.0000 0.0000 28.8594 10.4951 -44.3604 -4.9348 -13.3099 40.5401 0.8524 -22.6387 -25.4605 -0.0164 -0.8275 2.2742 4.7200 -0.9423 -16.0789 4.0401 -2.2677 -7.3393 1.1996 -1.2742 1.1888 5.4958 4.1346 -18.1292 -8.1968 6.0857 20.3537 -2.9448 2.2864 9.8934 0.0000 0.0000 0.0000 -85.2022 6.1963 35.1430 14.3650 -23.2541 -2.9707 -0.0000 0.0000 -39.2487 25.1632 -1.3724 -0.6446 -7.1250 0.0000 -0.0000 -1.0950 28.4629 0.4408 0.0000 0.0000 0.0000 75.0916 -12.5479 14.0647 -21.5660 32.4831 -6.3512 0.0000 -0.0000 -15.3382 -24.2816 -18.6435 8.2064 7.1250 -0.0000 -0.0000 3.8804 -50.2508 -0.5029
